<svg width="98" height="95" viewBox="0 0 98 95" fill="none" xmlns="http://www.w3.org/2000/svg">
<g clip-path="url(#clip0_0_64)">
<path d="M60.0666 45.9212L50.5025 54.9553L10.1145 93.0997C9.05421 94.1035 7.69402 94.6054 6.33383 94.6054C4.84512 94.6054 3.35641 94.0073 2.27469 92.822C0.143367 90.4941 0.421831 86.8526 2.87446 84.8664L50.5025 46.4551L55.7505 42.2263L60.0666 45.9212Z" fill="url(#paint0_linear_0_64)"/>
<path d="M50.0847 55.4145L40.6705 64.2992L39.803 55.1689L44.9546 51.0149L50.0847 55.4145Z" fill="#3A81D6" fill-opacity="0.8"/>
<path d="M97.7448 31.9428C97.7448 49.1675 83.7359 63.1353 66.4711 63.1353C55.5896 63.1353 46.004 57.593 40.4026 49.1782C37.1146 44.2446 35.1975 38.318 35.1975 31.9428C35.1975 14.718 49.2064 0.760986 66.4711 0.760986C74.2681 0.760986 81.3904 3.60152 86.8633 8.30015C93.525 14.0239 97.7448 22.4921 97.7448 31.9428Z" fill="url(#paint1_linear_0_64)"/>
<path d="M66.4713 56.2369C79.928 56.2369 90.8369 45.3601 90.8369 31.9428C90.8369 18.5256 79.928 7.6488 66.4713 7.6488C53.0146 7.6488 42.1057 18.5256 42.1057 31.9428C42.1057 45.3601 53.0146 56.2369 66.4713 56.2369Z" fill="#E7E7E7"/>
<path opacity="0.06" d="M97.7449 31.9428C97.7449 49.1675 83.7361 63.1353 66.4713 63.1353C55.5898 63.1353 46.0042 57.593 40.4028 49.1782C75.6713 46.3163 84.9677 16.5228 86.8742 8.30017C93.5252 14.024 97.7449 22.4922 97.7449 31.9428Z" fill="#1A6FB5" fill-opacity="0.5"/>
<path d="M66.4711 31.9962C69.2986 31.9962 71.5905 29.7109 71.5905 26.8918C71.5905 24.0726 69.2986 21.7874 66.4711 21.7874C63.6436 21.7874 61.3516 24.0726 61.3516 26.8918C61.3516 29.7109 63.6329 31.9962 66.4711 31.9962ZM66.4711 34.5484C63.0545 34.5484 56.2322 36.257 56.2322 39.6528V40.9343C56.2322 41.6391 56.8105 42.2157 57.5174 42.2157H75.4462C76.153 42.2157 76.7314 41.6391 76.7314 40.9343V39.6528C76.71 36.2677 69.8876 34.5484 66.4711 34.5484Z" fill="url(#paint2_linear_0_64)"/>
</g>
<defs>
<linearGradient id="paint0_linear_0_64" x1="6.81824" y1="88.6795" x2="57.1745" y2="42.7663" gradientUnits="userSpaceOnUse">
<stop stop-color="#67C3F3"/>
<stop offset="1" stop-color="#5A98F2"/>
</linearGradient>
<linearGradient id="paint1_linear_0_64" x1="53.5362" y1="2.96436" x2="77.1048" y2="56.1041" gradientUnits="userSpaceOnUse">
<stop stop-color="#67C3F3"/>
<stop offset="1" stop-color="#5A98F2"/>
</linearGradient>
<linearGradient id="paint2_linear_0_64" x1="59.0688" y1="30.3652" x2="77.5908" y2="39.4257" gradientUnits="userSpaceOnUse">
<stop stop-color="#B0F4FF"/>
<stop offset="0.071077" stop-color="#A6F1FF"/>
<stop offset="0.2937" stop-color="#8BE8FD"/>
<stop offset="0.5209" stop-color="#78E1FD"/>
<stop offset="0.7536" stop-color="#6DDDFC"/>
<stop offset="1" stop-color="#69DCFC"/>
</linearGradient>
<clipPath id="clip0_0_64">
<rect width="96.9054" height="93.8337" fill="white" transform="translate(0.839355 0.760986)"/>
</clipPath>
</defs>
</svg>
